<svg xmlns="http://www.w3.org/2000/svg" viewBox="0 0 64 64">
  <defs>
    <filter id="glow" x="-40%" y="-40%" width="180%" height="180%">
      <feGaussianBlur stdDeviation="2.4" result="blur" />
      <feMerge>
        <feMergeNode in="blur" />
        <feMergeNode in="SourceGraphic" />
      </feMerge>
    </filter>
  </defs>

  <path
    d="M24 6h16c2.2 0 4 1.8 4 4v10h10c2.2 0 4 1.8 4 4v16c0 2.2-1.8 4-4 4H44v10c0 2.2-1.8 4-4 4H24c-2.2 0-4-1.8-4-4V44H10c-2.2 0-4-1.8-4-4V24c0-2.2 1.8-4 4-4h10V10c0-2.2 1.8-4 4-4Z"
    fill="none"
    stroke="#0b57b5"
    stroke-width="2.8"
    stroke-linejoin="round"
    filter="url(#glow)"
  />
  <path
    d="M25 10h14c1.7 0 3 1.3 3 3v10h10c1.7 0 3 1.3 3 3v12c0 1.7-1.3 3-3 3H42v10c0 1.7-1.3 3-3 3H25c-1.7 0-3-1.3-3-3V41H12c-1.7 0-3-1.3-3-3V26c0-1.7 1.3-3 3-3h10V13c0-1.7 1.3-3 3-3Z"
    fill="#06295d"
    stroke="#0a3f87"
    stroke-width="1.4"
    stroke-linejoin="round"
  />

  <g fill="none" stroke="#ffffff" stroke-width="1.5" stroke-linecap="round">
    <path d="M32 32V16" />
    <path d="M32 32V48" />
    <path d="M32 32H16" />
    <path d="M32 32H48" />

    <path d="M27 19v9l-3 3" />
    <path d="M37 19v9l3 3" />
    <path d="M27 45v-9l-3-3" />
    <path d="M37 45v-9l3-3" />

    <path d="M19 27h9l3-3" />
    <path d="M19 37h9l3 3" />
    <path d="M45 27h-9l-3-3" />
    <path d="M45 37h-9l-3 3" />
  </g>

  <g fill="#ffffff">
    <circle cx="32" cy="32" r="2.2" />
    <circle cx="27" cy="19" r="1.3" />
    <circle cx="37" cy="19" r="1.3" />
    <circle cx="27" cy="45" r="1.3" />
    <circle cx="37" cy="45" r="1.3" />
    <circle cx="19" cy="27" r="1.3" />
    <circle cx="19" cy="37" r="1.3" />
    <circle cx="45" cy="27" r="1.3" />
    <circle cx="45" cy="37" r="1.3" />
  </g>
</svg>
